# xmcd
#
# Track frame offsets: 
#        150
#        12530
#        24714
#        35277
#        47978
#        59540
#        74955
#        87726
#        97812
#        110450
#        123285
#        137238
#        150687
#        164652
#        180498
#        192198
#        206319
#        216903
#        232343
#        242894
#
# Disc length: 3545 seconds
#
# Revision: 0
# Processed by: cddbd v1.5.2PL0 Copyright (c) Steve Scherf et al.
# Submitted via: ExactAudioCopy v1.0b4
#
DISCID=300dd714
DTITLE=Various Artist - CD 2
DYEAR=2013
DGENRE=Soul
TTITLE0=Sam Cooke - Bring it on home to me
TTITLE1=Aretha Franklin - Love is the only thing
TTITLE2=Ben E. King - First taste of love
TTITLE3=Jackie Wilson - As long as I live
TTITLE4=James Brown - I feel that old feeling coming on
TTITLE5=Johnny Mathis - Every step of the way
TTITLE6=Lloyd Price - You need love
TTITLE7=Ike and Tina Turner - I'm jealous
TTITLE8=Jerry Butler - Find another girl
TTITLE9=Gladys Knight and The Pips - Letters full of tears
TTITLE10=Sam Cooke - Somebody have mercy
TTITLE11=Aretha Franklin - All night long
TTITLE12=Ben E. King - Amor
TTITLE13=Marvin Gaye - Funny valentine
TTITLE14=James Brown - Just won't do right
TTITLE15=Johnny Mathis - It's not for me to say
TTITLE16=Chuck Willis - Hang up my rock and roll shoes
TTITLE17=Ray Charles - The night time is the right time
TTITLE18=The Coasters - Charlie Brown
TTITLE19=Ray Charles - What'd I say, Parts 1 and 2
EXTD=
EXTT0=
EXTT1=
EXTT2=
EXTT3=
EXTT4=
EXTT5=
EXTT6=
EXTT7=
EXTT8=
EXTT9=
EXTT10=
EXTT11=
EXTT12=
EXTT13=
EXTT14=
EXTT15=
EXTT16=
EXTT17=
EXTT18=
EXTT19=
PLAYORDER=
